<svg viewBox="0 0 220 128" fill="none" xmlns="http://www.w3.org/2000/svg">
<path id="Vector" fill-rule="evenodd" clip-rule="evenodd" d="M212.457 3.59229C203.442 11.5953 197.39 12.9533 170.658 12.9733C147.528 12.9903 141.482 13.9973 130.796 19.6123C121.07 24.7233 120.833 26.6073 128.42 38.4673L131.879 43.8753L137.022 40.4143C155.614 27.9023 180.28 34.5953 190.621 54.9583C193.09 59.8213 193.416 61.5613 193.435 69.9763C193.455 78.7143 193.191 80.0343 190.207 86.0983C186.349 93.9383 180.068 100.084 172.132 103.782C167.304 106.032 165.114 106.424 157.457 106.409C149.591 106.393 147.703 106.026 142.479 103.494C135.252 99.9923 128.2 93.1713 125.033 86.6213C123.724 83.9143 122.298 78.4113 121.794 74.1213C118.957 49.9783 115.541 41.5083 103.974 29.9413C98.8733 24.8403 94.3683 21.4103 89.9573 19.2693C78.6623 13.7853 73.4613 12.9583 50.2733 12.9583C23.6423 12.9583 17.2553 11.5043 8.75129 3.5043C5.16729 0.132296 3.38527 0.293293 2.05527 4.10729C-1.49073 14.2783 3.44129 24.0833 15.0913 30.0263C19.5123 32.2823 19.6723 32.7803 17.0473 36.1173C15.9963 37.4533 13.7813 41.2263 12.1253 44.5023C0.897282 66.7143 5.21129 93.2863 22.9203 110.995C40.9723 129.047 68.2453 133.133 90.4573 121.112C99.4383 116.252 99.8223 114.369 93.9213 104.133C91.6463 100.187 89.5683 96.9583 89.3043 96.9583C89.0403 96.9583 87.3663 98.0693 85.5853 99.4283C78.8033 104.601 73.1123 106.397 63.4573 106.412C55.8053 106.424 53.6073 106.03 48.7823 103.782C40.8493 100.085 34.5653 93.9383 30.7073 86.1023C27.7673 80.1293 27.4573 78.6383 27.4573 70.4583C27.4573 62.2783 27.7673 60.7873 30.7073 54.8143C34.5603 46.9883 40.8363 40.8433 48.7823 37.1183C53.6133 34.8543 55.7993 34.4583 63.4783 34.4583C71.6353 34.4583 73.1323 34.7693 79.1013 37.7083C92.1463 44.1303 98.3453 54.0393 99.9673 71.0633C101.735 89.6163 106.183 100.053 116.953 110.923C134.559 128.691 160.889 132.925 183.904 121.69C188.317 119.536 192.929 116.034 198.025 110.968C209.761 99.2993 214.968 86.6913 214.945 69.9983C214.928 57.6613 211.786 47.3833 205.028 37.5613C203.339 35.1063 201.957 32.8493 201.957 32.5453C201.957 32.2413 204.135 30.8883 206.797 29.5393C211.912 26.9473 217.466 21.3793 219.024 17.2823C220.442 13.5513 220.14 6.21229 218.431 2.90829C217.592 1.28629 216.805 -0.0227015 216.681 0.000298522C216.558 0.0232985 214.657 1.63929 212.457 3.59229ZM55.9573 49.2723C54.0323 49.8823 50.3673 52.4673 47.8133 55.0163C38.8323 63.9793 38.8493 76.9643 47.8533 85.9303C57.2433 95.2793 69.6493 95.3003 79.0083 85.9823C83.3563 81.6543 87.2633 72.9313 85.6003 71.2683C85.2523 70.9193 83.1923 71.2203 81.0233 71.9363C74.8543 73.9723 69.0693 72.7473 65.2683 68.6003C60.9733 63.9133 60.2223 59.4083 62.7753 53.6373C63.8763 51.1483 64.5173 48.8523 64.2003 48.5353C63.3623 47.6973 59.9683 48.0003 55.9573 49.2723ZM150.196 49.2933C134.026 55.1573 130.244 76.8063 143.484 87.7203C152.591 95.2263 164.423 94.5303 173.008 85.9823C177.391 81.6183 181.259 72.9273 179.57 71.2383C179.205 70.8733 177.424 71.1113 175.611 71.7663C162.72 76.4283 151.493 65.5773 156.798 53.5843C157.886 51.1243 158.517 48.8523 158.2 48.5353C157.316 47.6503 153.809 47.9823 150.196 49.2933Z" fill="#93B1A6"/>
</svg>
